<mxfile host="app.diagrams.net" modified="2021-01-16T08:41:43.238Z" agent="5.0 (Windows NT 10.0; Win64; x64) AppleWebKit/537.36 (KHTML, like Gecko) Chrome/87.0.4280.141 Safari/537.36" etag="h1WZYT2jDOozYnWoh596" version="14.2.4" type="github">
  <diagram id="C5RBs43oDa-KdzZeNtuy" name="Page-1">
    <mxGraphModel dx="725" dy="787" grid="1" gridSize="10" guides="1" tooltips="1" connect="1" arrows="1" fold="1" page="1" pageScale="1" pageWidth="827" pageHeight="1169" math="0" shadow="0">
      <root>
        <mxCell id="WIyWlLk6GJQsqaUBKTNV-0" />
        <mxCell id="WIyWlLk6GJQsqaUBKTNV-1" parent="WIyWlLk6GJQsqaUBKTNV-0" />
        <mxCell id="WIyWlLk6GJQsqaUBKTNV-2" value="" style="rounded=0;html=1;jettySize=auto;orthogonalLoop=1;fontSize=11;endArrow=block;endFill=0;endSize=8;strokeWidth=1;shadow=0;labelBackgroundColor=none;edgeStyle=orthogonalEdgeStyle;" parent="WIyWlLk6GJQsqaUBKTNV-1" source="WIyWlLk6GJQsqaUBKTNV-3" target="WIyWlLk6GJQsqaUBKTNV-6" edge="1">
          <mxGeometry relative="1" as="geometry" />
        </mxCell>
        <mxCell id="WIyWlLk6GJQsqaUBKTNV-3" value="Start" style="rounded=1;whiteSpace=wrap;html=1;fontSize=12;glass=0;strokeWidth=1;shadow=0;" parent="WIyWlLk6GJQsqaUBKTNV-1" vertex="1">
          <mxGeometry x="200" y="80" width="120" height="40" as="geometry" />
        </mxCell>
        <mxCell id="hj8ib50HHt5EJ-r6RxZm-8" value="" style="edgeStyle=orthogonalEdgeStyle;rounded=0;orthogonalLoop=1;jettySize=auto;html=1;" edge="1" parent="WIyWlLk6GJQsqaUBKTNV-1" source="WIyWlLk6GJQsqaUBKTNV-6" target="hj8ib50HHt5EJ-r6RxZm-7">
          <mxGeometry relative="1" as="geometry" />
        </mxCell>
        <mxCell id="hj8ib50HHt5EJ-r6RxZm-10" value="" style="edgeStyle=orthogonalEdgeStyle;rounded=0;orthogonalLoop=1;jettySize=auto;html=1;" edge="1" parent="WIyWlLk6GJQsqaUBKTNV-1" source="WIyWlLk6GJQsqaUBKTNV-6" target="hj8ib50HHt5EJ-r6RxZm-9">
          <mxGeometry relative="1" as="geometry" />
        </mxCell>
        <mxCell id="hj8ib50HHt5EJ-r6RxZm-12" value="" style="edgeStyle=orthogonalEdgeStyle;rounded=0;orthogonalLoop=1;jettySize=auto;html=1;" edge="1" parent="WIyWlLk6GJQsqaUBKTNV-1" source="WIyWlLk6GJQsqaUBKTNV-6">
          <mxGeometry relative="1" as="geometry">
            <mxPoint x="390" y="340" as="targetPoint" />
          </mxGeometry>
        </mxCell>
        <mxCell id="WIyWlLk6GJQsqaUBKTNV-6" value="pizza size?" style="rhombus;whiteSpace=wrap;html=1;shadow=0;fontFamily=Helvetica;fontSize=12;align=center;strokeWidth=1;spacing=6;spacingTop=-4;" parent="WIyWlLk6GJQsqaUBKTNV-1" vertex="1">
          <mxGeometry x="210" y="170" width="100" height="80" as="geometry" />
        </mxCell>
        <mxCell id="hj8ib50HHt5EJ-r6RxZm-16" value="" style="edgeStyle=orthogonalEdgeStyle;rounded=0;orthogonalLoop=1;jettySize=auto;html=1;" edge="1" parent="WIyWlLk6GJQsqaUBKTNV-1" source="hj8ib50HHt5EJ-r6RxZm-7" target="hj8ib50HHt5EJ-r6RxZm-15">
          <mxGeometry relative="1" as="geometry" />
        </mxCell>
        <mxCell id="hj8ib50HHt5EJ-r6RxZm-7" value="S&lt;br&gt;$15" style="whiteSpace=wrap;html=1;shadow=0;strokeWidth=1;spacing=6;spacingTop=-4;" vertex="1" parent="WIyWlLk6GJQsqaUBKTNV-1">
          <mxGeometry x="70" y="340" width="120" height="60" as="geometry" />
        </mxCell>
        <mxCell id="hj8ib50HHt5EJ-r6RxZm-18" value="" style="edgeStyle=orthogonalEdgeStyle;rounded=0;orthogonalLoop=1;jettySize=auto;html=1;" edge="1" parent="WIyWlLk6GJQsqaUBKTNV-1" source="hj8ib50HHt5EJ-r6RxZm-9" target="hj8ib50HHt5EJ-r6RxZm-17">
          <mxGeometry relative="1" as="geometry" />
        </mxCell>
        <mxCell id="hj8ib50HHt5EJ-r6RxZm-9" value="M&lt;br&gt;$20" style="whiteSpace=wrap;html=1;shadow=0;strokeWidth=1;spacing=6;spacingTop=-4;" vertex="1" parent="WIyWlLk6GJQsqaUBKTNV-1">
          <mxGeometry x="200" y="340" width="120" height="60" as="geometry" />
        </mxCell>
        <mxCell id="hj8ib50HHt5EJ-r6RxZm-19" style="edgeStyle=orthogonalEdgeStyle;rounded=0;orthogonalLoop=1;jettySize=auto;html=1;" edge="1" parent="WIyWlLk6GJQsqaUBKTNV-1" target="hj8ib50HHt5EJ-r6RxZm-17">
          <mxGeometry relative="1" as="geometry">
            <mxPoint x="390" y="400" as="sourcePoint" />
          </mxGeometry>
        </mxCell>
        <mxCell id="hj8ib50HHt5EJ-r6RxZm-11" value="L&lt;br&gt;$25" style="whiteSpace=wrap;html=1;shadow=0;strokeWidth=1;spacing=6;spacingTop=-4;" vertex="1" parent="WIyWlLk6GJQsqaUBKTNV-1">
          <mxGeometry x="290" y="340" width="120" height="60" as="geometry" />
        </mxCell>
        <mxCell id="hj8ib50HHt5EJ-r6RxZm-24" value="" style="edgeStyle=orthogonalEdgeStyle;rounded=0;orthogonalLoop=1;jettySize=auto;html=1;" edge="1" parent="WIyWlLk6GJQsqaUBKTNV-1" source="hj8ib50HHt5EJ-r6RxZm-15" target="hj8ib50HHt5EJ-r6RxZm-23">
          <mxGeometry relative="1" as="geometry" />
        </mxCell>
        <mxCell id="hj8ib50HHt5EJ-r6RxZm-29" value="" style="edgeStyle=orthogonalEdgeStyle;rounded=0;orthogonalLoop=1;jettySize=auto;html=1;" edge="1" parent="WIyWlLk6GJQsqaUBKTNV-1" source="hj8ib50HHt5EJ-r6RxZm-15" target="hj8ib50HHt5EJ-r6RxZm-28">
          <mxGeometry relative="1" as="geometry" />
        </mxCell>
        <mxCell id="hj8ib50HHt5EJ-r6RxZm-38" style="edgeStyle=orthogonalEdgeStyle;rounded=0;orthogonalLoop=1;jettySize=auto;html=1;exitX=0.5;exitY=1;exitDx=0;exitDy=0;entryX=0.5;entryY=0;entryDx=0;entryDy=0;" edge="1" parent="WIyWlLk6GJQsqaUBKTNV-1" source="hj8ib50HHt5EJ-r6RxZm-15" target="hj8ib50HHt5EJ-r6RxZm-37">
          <mxGeometry relative="1" as="geometry" />
        </mxCell>
        <mxCell id="hj8ib50HHt5EJ-r6RxZm-15" value="Peperoni?" style="rhombus;whiteSpace=wrap;html=1;shadow=0;strokeWidth=1;spacing=6;spacingTop=-4;" vertex="1" parent="WIyWlLk6GJQsqaUBKTNV-1">
          <mxGeometry x="85" y="470" width="90" height="90" as="geometry" />
        </mxCell>
        <mxCell id="hj8ib50HHt5EJ-r6RxZm-27" value="" style="edgeStyle=orthogonalEdgeStyle;rounded=0;orthogonalLoop=1;jettySize=auto;html=1;" edge="1" parent="WIyWlLk6GJQsqaUBKTNV-1" source="hj8ib50HHt5EJ-r6RxZm-17" target="hj8ib50HHt5EJ-r6RxZm-26">
          <mxGeometry relative="1" as="geometry" />
        </mxCell>
        <mxCell id="hj8ib50HHt5EJ-r6RxZm-30" style="edgeStyle=orthogonalEdgeStyle;rounded=0;orthogonalLoop=1;jettySize=auto;html=1;entryX=0.5;entryY=0;entryDx=0;entryDy=0;" edge="1" parent="WIyWlLk6GJQsqaUBKTNV-1" source="hj8ib50HHt5EJ-r6RxZm-17" target="hj8ib50HHt5EJ-r6RxZm-28">
          <mxGeometry relative="1" as="geometry" />
        </mxCell>
        <mxCell id="hj8ib50HHt5EJ-r6RxZm-40" style="edgeStyle=orthogonalEdgeStyle;rounded=0;orthogonalLoop=1;jettySize=auto;html=1;exitX=0.5;exitY=1;exitDx=0;exitDy=0;entryX=0.5;entryY=0;entryDx=0;entryDy=0;" edge="1" parent="WIyWlLk6GJQsqaUBKTNV-1" source="hj8ib50HHt5EJ-r6RxZm-17" target="hj8ib50HHt5EJ-r6RxZm-39">
          <mxGeometry relative="1" as="geometry" />
        </mxCell>
        <mxCell id="hj8ib50HHt5EJ-r6RxZm-17" value="Pepperoni?" style="rhombus;whiteSpace=wrap;html=1;shadow=0;strokeWidth=1;spacing=6;spacingTop=-4;" vertex="1" parent="WIyWlLk6GJQsqaUBKTNV-1">
          <mxGeometry x="280" y="470" width="90" height="90" as="geometry" />
        </mxCell>
        <mxCell id="hj8ib50HHt5EJ-r6RxZm-23" value="+2" style="whiteSpace=wrap;html=1;shadow=0;strokeWidth=1;spacing=6;spacingTop=-4;" vertex="1" parent="WIyWlLk6GJQsqaUBKTNV-1">
          <mxGeometry x="30" y="501.25" width="30" height="30" as="geometry" />
        </mxCell>
        <mxCell id="hj8ib50HHt5EJ-r6RxZm-26" value="+3" style="whiteSpace=wrap;html=1;shadow=0;strokeWidth=1;spacing=6;spacingTop=-4;" vertex="1" parent="WIyWlLk6GJQsqaUBKTNV-1">
          <mxGeometry x="400" y="498.75" width="32.5" height="32.5" as="geometry" />
        </mxCell>
        <mxCell id="hj8ib50HHt5EJ-r6RxZm-32" value="" style="edgeStyle=orthogonalEdgeStyle;rounded=0;orthogonalLoop=1;jettySize=auto;html=1;" edge="1" parent="WIyWlLk6GJQsqaUBKTNV-1" source="hj8ib50HHt5EJ-r6RxZm-28" target="hj8ib50HHt5EJ-r6RxZm-31">
          <mxGeometry relative="1" as="geometry" />
        </mxCell>
        <mxCell id="hj8ib50HHt5EJ-r6RxZm-34" value="" style="edgeStyle=orthogonalEdgeStyle;rounded=0;orthogonalLoop=1;jettySize=auto;html=1;" edge="1" parent="WIyWlLk6GJQsqaUBKTNV-1" source="hj8ib50HHt5EJ-r6RxZm-28" target="hj8ib50HHt5EJ-r6RxZm-33">
          <mxGeometry relative="1" as="geometry" />
        </mxCell>
        <mxCell id="hj8ib50HHt5EJ-r6RxZm-28" value="Cheese?" style="rhombus;whiteSpace=wrap;html=1;shadow=0;strokeWidth=1;spacing=6;spacingTop=-4;" vertex="1" parent="WIyWlLk6GJQsqaUBKTNV-1">
          <mxGeometry x="180" y="590" width="90" height="90" as="geometry" />
        </mxCell>
        <mxCell id="hj8ib50HHt5EJ-r6RxZm-31" value="+1" style="whiteSpace=wrap;html=1;shadow=0;strokeWidth=1;spacing=6;spacingTop=-4;" vertex="1" parent="WIyWlLk6GJQsqaUBKTNV-1">
          <mxGeometry x="287.5" y="621.25" width="25" height="27.5" as="geometry" />
        </mxCell>
        <mxCell id="hj8ib50HHt5EJ-r6RxZm-33" value="N" style="whiteSpace=wrap;html=1;shadow=0;strokeWidth=1;spacing=6;spacingTop=-4;" vertex="1" parent="WIyWlLk6GJQsqaUBKTNV-1">
          <mxGeometry x="212.5" y="700" width="25" height="25" as="geometry" />
        </mxCell>
        <mxCell id="hj8ib50HHt5EJ-r6RxZm-37" value="N" style="whiteSpace=wrap;html=1;shadow=0;strokeWidth=1;spacing=6;spacingTop=-4;" vertex="1" parent="WIyWlLk6GJQsqaUBKTNV-1">
          <mxGeometry x="117.5" y="572" width="25" height="25" as="geometry" />
        </mxCell>
        <mxCell id="hj8ib50HHt5EJ-r6RxZm-39" value="N" style="whiteSpace=wrap;html=1;shadow=0;strokeWidth=1;spacing=6;spacingTop=-4;" vertex="1" parent="WIyWlLk6GJQsqaUBKTNV-1">
          <mxGeometry x="312.5" y="572" width="25" height="25" as="geometry" />
        </mxCell>
      </root>
    </mxGraphModel>
  </diagram>
</mxfile>
